# xmcd CD database file
#
# Track frame offsets:
#	150
#	17307
#	30267
#	48573
#	65105
#	80838
#	97455
#	115162
#	135766
#	156127
#	172599
#	187944
#	203700
#
# Disc length: 2911 seconds
#
# Revision: 0
# Processed by: cddbd v1.5.2PL0 Copyright (c) Steve Scherf et al.
# Submitted via: CDex 1.51
#
DISCID=9e0b5d0d
DTITLE=Susie McEntire - Let Go
DYEAR=2008
DGENRE=Country
TTITLE0=Never Alone
TTITLE1=Sky Full of Angels
TTITLE2=Sticks and Stones
TTITLE3=Lily of the Field
TTITLE4=In the Name of Jesus
TTITLE5=Let Go
TTITLE6=Less One Day
TTITLE7=Everlasting Hills of Oklahoma/Don't Fence Me In/Happy Trails
TTITLE8=Amazing Grace
TTITLE9=Help Is on the Way
TTITLE10=If There Hadn't Been You
TTITLE11=Old Chunk of Coal
TTITLE12=I Will Rest in You
EXTD=YEAR: 2008
EXTT0=
EXTT1=
EXTT2=
EXTT3=
EXTT4=
EXTT5=
EXTT6=
EXTT7=
EXTT8=
EXTT9=
EXTT10=
EXTT11=
EXTT12=
PLAYORDER=
